<svg xmlns="http://www.w3.org/2000/svg" viewBox="0 0 225.8 131.777"><path data-name="2" d="M107.021 33.466v64.749a32.545 32.545 0 01-9.807 23.769 32.846 32.846 0 01-23.804 9.793h-39.8a32.528 32.528 0 01-23.708-9.792 32.388 32.388 0 01-9.9-23.769v-64.75a32.278 32.278 0 019.9-23.674A32.324 32.324 0 0133.61 0h39.8a32.435 32.435 0 0123.8 9.792 32.641 32.641 0 019.811 23.674zm-101.975 0v64.74a27.449 27.449 0 008.379 20.154 27.134 27.134 0 0020.186 8.371h39.8a27.333 27.333 0 0020.186-8.366 27.449 27.449 0 008.379-20.154v-64.74a27.861 27.861 0 00-8.379-20.154 27.492 27.492 0 00-20.186-8.27h-39.8a27.492 27.492 0 00-20.186 8.27 27.861 27.861 0 00-8.379 20.154zm10.093 64.7a18.1 18.1 0 005.427 13.14 17.786 17.786 0 0013.044 5.427h39.8a18.311 18.311 0 0013.14-5.427 18.1 18.1 0 005.427-13.14V33.325a17.786 17.786 0 00-5.427-13.048 18.311 18.311 0 00-13.14-5.427h-39.8a17.786 17.786 0 00-13.044 5.427 17.786 17.786 0 00-5.427 13.048zm81.885 0a22.934 22.934 0 01-6.951 16.663 22.729 22.729 0 01-16.663 6.948h-39.8a22.62 22.62 0 01-16.571-6.948 22.729 22.729 0 01-6.951-16.663V33.325a22.417 22.417 0 016.951-16.568 22.62 22.62 0 0116.567-6.951h39.8a22.729 22.729 0 0116.663 6.951 22.62 22.62 0 016.951 16.567zm-76.934 0V33.325a13.423 13.423 0 014-9.521 13.161 13.161 0 019.521-3.9h39.8a12.956 12.956 0 019.521 3.9 13 13 0 014 9.521v64.841a12.6 12.6 0 01-4 9.521 12.8 12.8 0 01-9.521 4h-39.8a13 13 0 01-9.521-4 13 13 0 01-4-9.521zm61.794 0V33.325a8.059 8.059 0 00-2.476-5.9 8.594 8.594 0 00-6-2.476h-39.8a8.059 8.059 0 00-5.9 2.476 7.914 7.914 0 00-2.571 5.9v64.841a7.826 7.826 0 002.571 6 8.059 8.059 0 005.9 2.476h39.8a8.594 8.594 0 006-2.476 8.169 8.169 0 002.477-6zm36.608-58.367v-7.012a31.585 31.585 0 019.712-23.218 31.935 31.935 0 0123.232-9.571h41.418a31.683 31.683 0 0123.232 9.6 31.729 31.729 0 019.712 23.287v14.067a31.517 31.517 0 01-6.659 19.769 31.668 31.668 0 01-17.143 11.786l-52.749 15.208a7.3 7.3 0 00-4.094 2.755 7.609 7.609 0 00-1.523 4.753v5.417h82.17v5.046h-87.217v-10.454a13.461 13.461 0 012.571-7.794 12.428 12.428 0 016.76-4.468l52.654-15.3a26.777 26.777 0 0014.568-9.98 26.484 26.484 0 005.618-16.728V32.895a26.907 26.907 0 00-8.188-19.77 26.849 26.849 0 00-19.709-8.078h-41.418a26.9 26.9 0 00-19.709 8.049 26.759 26.759 0 00-8.188 19.7v7.007zm10.093 0v-7.046a21.881 21.881 0 016.76-16.187 21.573 21.573 0 0116.091-6.76h41.418a22.084 22.084 0 0116.187 6.76 22.037 22.037 0 016.665 16.187v14.092a22.737 22.737 0 01-4.475 13.806 23.038 23.038 0 01-12 8.188l-52.745 15.238a17.827 17.827 0 00-9.331 6.379 17.633 17.633 0 00-3.523 10.759v15.52H225.8v5.042h-97.215v-20.564a22.421 22.421 0 014.57-13.806 22.3 22.3 0 0112-8.188l52.654-15.234a16.315 16.315 0 009.331-6.379 16.864 16.864 0 003.523-10.759V32.754a17.05 17.05 0 00-5.237-12.664 16.939 16.939 0 00-12.568-5.237h-41.419a17.141 17.141 0 00-12.568 5.237 17.251 17.251 0 00-5.237 12.664V39.8zm97.215 86.932v5.046H118.493v-30.564a32.129 32.129 0 016.665-19.8 32.623 32.623 0 0117.139-11.807l52.749-15.139a8.067 8.067 0 004.094-2.856 7.38 7.38 0 001.523-4.761V32.754a7.524 7.524 0 00-2.285-5.522 7.524 7.524 0 00-5.522-2.285h-41.417a7.024 7.024 0 00-5.427 2.285 7.577 7.577 0 00-2.38 5.522V39.8h-5.046v-7.046a12.886 12.886 0 013.809-9.141 12.515 12.515 0 019.045-3.713h41.514a12.31 12.31 0 019.045 3.713 12.423 12.423 0 013.713 9.141v14.092a12.733 12.733 0 01-2.476 7.808 12.931 12.931 0 01-6.76 4.57l-52.751 15.234a26.328 26.328 0 00-14.568 10 27.337 27.337 0 00-5.618 16.755v25.518H225.8z" fill="#29a3fb"/></svg>