<svg xmlns="http://www.w3.org/2000/svg" viewBox="0 0 159.721 131.777"><path data-name="1" d="M107.021 33.466v64.749a32.545 32.545 0 01-9.807 23.769 32.846 32.846 0 01-23.804 9.793h-39.8a32.528 32.528 0 01-23.708-9.792 32.388 32.388 0 01-9.9-23.769v-64.75a32.278 32.278 0 019.9-23.674A32.324 32.324 0 0133.61 0h39.8a32.435 32.435 0 0123.8 9.792 32.641 32.641 0 019.811 23.674zm-101.975 0v64.74a27.449 27.449 0 008.379 20.154 27.134 27.134 0 0020.186 8.371h39.8a27.333 27.333 0 0020.186-8.366 27.449 27.449 0 008.379-20.154v-64.74a27.861 27.861 0 00-8.379-20.154 27.492 27.492 0 00-20.186-8.27h-39.8a27.492 27.492 0 00-20.186 8.27 27.861 27.861 0 00-8.379 20.154zm10.093 64.7a18.1 18.1 0 005.427 13.14 17.786 17.786 0 0013.044 5.427h39.8a18.311 18.311 0 0013.14-5.427 18.1 18.1 0 005.427-13.14V33.325a17.786 17.786 0 00-5.427-13.048 18.311 18.311 0 00-13.14-5.427h-39.8a17.786 17.786 0 00-13.044 5.427 17.786 17.786 0 00-5.427 13.048zm81.885 0a22.934 22.934 0 01-6.951 16.663 22.729 22.729 0 01-16.663 6.948h-39.8a22.62 22.62 0 01-16.571-6.948 22.729 22.729 0 01-6.951-16.663V33.325a22.417 22.417 0 016.951-16.568 22.62 22.62 0 0116.567-6.951h39.8a22.729 22.729 0 0116.663 6.951 22.62 22.62 0 016.951 16.567zm-76.934 0V33.325a13.423 13.423 0 014-9.521 13.161 13.161 0 019.521-3.9h39.8a12.956 12.956 0 019.521 3.9 13 13 0 014 9.521v64.841a12.6 12.6 0 01-4 9.521 12.8 12.8 0 01-9.521 4h-39.8a13 13 0 01-9.521-4 13 13 0 01-4-9.521zm61.794 0V33.325a8.059 8.059 0 00-2.476-5.9 8.594 8.594 0 00-6-2.476h-39.8a8.059 8.059 0 00-5.9 2.476 7.914 7.914 0 00-2.571 5.9v64.841a7.826 7.826 0 002.571 6 8.059 8.059 0 005.9 2.476h39.8a8.594 8.594 0 006-2.476 8.169 8.169 0 002.477-6zm62.698 33.611V33.325a17.786 17.786 0 00-5.427-13.044 17.786 17.786 0 00-13.044-5.427h-7.617V9.808h7.617a22.62 22.62 0 0116.567 6.951 22.417 22.417 0 016.951 16.567v98.451zm10.093 0v-98.3a27.861 27.861 0 00-8.379-20.154 27.489 27.489 0 00-20.186-8.272h-7.617V.005h7.617a32.324 32.324 0 0123.708 9.792 32.278 32.278 0 019.9 23.674v98.306zm-15.045 0h-5.046V33.325a8.221 8.221 0 00-2.571-6 8.059 8.059 0 00-5.9-2.476h-7.617v-4.951h7.617a12.956 12.956 0 019.521 3.9 13.423 13.423 0 014 9.521z" fill="#29a3fb"/></svg>