<svg xmlns="http://www.w3.org/2000/svg" viewBox="0 0 428.655 94.674"><g data-name="Raggruppa 1422"><path data-name="Tracciato 13007" d="M428.655 78.004a2.476 2.476 0 00-1.343-.313c-.169-.108-.775-.613-.49-.653-.85-.314-3.817-.145-2.573-.861-3.018-.588-15.724-1.284-22.841-1.457-6.619-.163-22.973-.446-27.171-.564a49.832 49.832 0 01-3.687-.558c-3.812-.726-5.79-2.537-6.638-4.538l-.014-.054a80.743 80.743 0 007.173-4.643c3.2-2.3 7.258-6.284 6.578-10-1.631-8.915-20.036 1.457-21.907 11.09a14.672 14.672 0 00-.283 3.509c-5.537 2.733-10.665 4.683-13.257 4.972-.429.048-.648-.762-.648-.762-.109-.652-.272-1.848 12.137-20.981 3.675-5.667 12.454-17.327 14.162-19.893 3.044-4.577 7.353-9.153 5.5-9.463-2.928.894-6.033 1.845-8.164 4.783-7.256 9.87-15.151 19.5-20.045 25.354-.483-1.357-1.768-2.38-6.013-1.839a27.681 27.681 0 00-8.913 2.927l.134-.155-.569.379a36.444 36.444 0 00-5.294 3.42c-9.1 5.745-20.714 12.487-23 12.75-.609.13-.682-.037-.565-.74.2-1.18 3.825-14.715 4.045-15.785.688-3.378-1.294-3.943-5.054-1.978a.92.92 0 00-.053.028l-.039.024c-.62.33-1.653.942-2.971 1.751-13.249 7.787-26.182 15.123-27.991 15.734-.672.343-.928.117-.4-.593 2.9-3.913 14.179-20.217 14.367-20.591 8.662-6.221 11.962-8.489 16.925-12.744 7.191-6.164 7.393-12.595 5.169-20.692-.952-3.468-3.907-1.888-8.6 3.4s-12.977 16.505-19.179 25c-.6.827-1.292 1.765-2.027 2.77-4.762 4.322-13.059 7.471-20.182 9.542a6.226 6.226 0 00-1.779-3.474c-2.955-3.913-10.948-3.1-20.1 2.816-5.8 3.518-13.225 10.862-13.86 16.974-.59 5.672 4.338 7.594 8.577 7.6 7.915 0 16.671-4.943 21.959-11.856a26.965 26.965 0 004.764-8 122.98 122.98 0 0014.245-4.849c-4.9 6.773-10 14-12.141 17.742-3.911 6.845-.081 8.594 6.523 5.218a149.263 149.263 0 004.739-2.555c10.676-5.632 23.115-12.914 23.115-12.914s-2.57 8.9-3.479 13.3c-1.088 5.271 3.131 3.747 10.959.974a95.389 95.389 0 0017.953-8.867c-2.552 6.868 2.077 11.944 5.64 11.584a26.128 26.128 0 0011.757-4.9c3.654 5.744 4.377 5.616 9.335 4 1.214-.4 2.657-.951 4.268-1.632a127.775 127.775 0 009.126-3.879c-.007-.012.025-.012 0 0 1.545 2.707 4.689 4.322 9.111 5.27a37.8 37.8 0 009.663.757c3.708.055 11.79-.157 23.989-.509.107 0 26.359-.426 29.368-.358zM244.024 63.288c-7.4 8.569-14.189 9.748-15.052 6.757-.822-2.85 4.763-8.258 9.383-11.06 11.056-5.836 10.855-2.477 5.669 4.3zm56.789-39.508c.675-.638.562 3.284-1.043 5.622s-9.624 9.019-12.742 11.085c-.906.6 12.552-15.539 13.785-16.707zm39.6 34.709a75.273 75.273 0 01-5.653 7.174c-6.826 8.186-13.264 8.412-9.351.761 3.7-5.98 13.892-12.055 15-7.935zm26.808 3.683a82.55 82.55 0 01-3.525 2.264 6.218 6.218 0 01.633-1.446c2.414-3.9 7.625-8.334 8.049-6.134.2 1.051-2.138 3.125-5.156 5.316zm-38.965-20.726c.481-.063.978-.1 1.218-.449-6.664.171-14.36-.684-20.82-.693-1.427 0-5.233.112-5.61.646-1.172 1.659 3.811 5.691 4.085 5.754 1.586.365 14.852-2.082 18.923-3.323-1.02-1.063 1.625-.86 2.405-1.31a.421.421 0 01-.2-.623zm-93.415-33.58c-.19-5.925-10.9-7.449-21.055-7.756a402.472 402.472 0 00-44.2 1.573c-4.283.46-7.63.971-7.63.971s-1.563 1.258-2.323 1.228-5.442 2.607-5.531 2.772c3.687-.3 19.36-2.464 41.776-3.039 7.786-.2 23.439-1.011 23.614 4.377.159 4.933-15.493 12.681-43.952 15.732l20.784-16.081c.275-.5-8.4 1.006-8.4 1.006l-24.26 17.164c-2.747.354-6.057.789-7.289 1-7.357 1.29-11.162 6.356-14.065 7.388-.3.107-.348.107-.166.094 2.186-.159 6.521-.478 10.835-.929L83.933 82.209s-2.78 1.9-3.3 2.2c.534.129 4.388-.707 5.964-.74s6.636-.23 10.028-1.708a82.378 82.378 0 0017.8-9.318c6.1-4.363 22.749-18.612 29.891-24.765l20.166-15.6c3.885-.4 8.779-.877 10.971-.971 9.318-.395 36.115-3.094 36.26 9.044s-33.006 34.6-86.6 43.66c-26.487 4.478-55.375 6.433-72.36 7.109l-.316.014c-5.947.232-11.175.241-15.587.322-7.258.133-12.727.228-17.627.115-6.556-.153-10.84-.13-10.84-.13L.002 94.15s23.926.911 51.957.327a542.829 542.829 0 0089.466-7.88c66.808-11.724 89.512-32.305 89.352-45.647-.13-10.984-11.29-15.338-23.935-16.99 19.4-4.692 28.133-11.955 28-16.091z" fill="#fff"/></g></svg>