<svg xmlns="http://www.w3.org/2000/svg" viewBox="0 0 225.8 131.777"><path data-name="3" d="M107.021 33.466v64.749a32.545 32.545 0 01-9.807 23.769 32.846 32.846 0 01-23.804 9.793h-39.8a32.528 32.528 0 01-23.708-9.792 32.388 32.388 0 01-9.9-23.769v-64.75a32.278 32.278 0 019.9-23.674A32.324 32.324 0 0133.61 0h39.8a32.435 32.435 0 0123.8 9.792 32.641 32.641 0 019.811 23.674zm-101.975 0v64.74a27.449 27.449 0 008.379 20.154 27.134 27.134 0 0020.186 8.371h39.8a27.333 27.333 0 0020.186-8.366 27.449 27.449 0 008.379-20.154v-64.74a27.861 27.861 0 00-8.379-20.154 27.492 27.492 0 00-20.186-8.27h-39.8a27.492 27.492 0 00-20.186 8.27 27.861 27.861 0 00-8.379 20.154zm10.093 64.7a18.1 18.1 0 005.427 13.14 17.786 17.786 0 0013.044 5.427h39.8a18.311 18.311 0 0013.14-5.427 18.1 18.1 0 005.427-13.14V33.325a17.786 17.786 0 00-5.427-13.048 18.311 18.311 0 00-13.14-5.427h-39.8a17.786 17.786 0 00-13.044 5.427 17.786 17.786 0 00-5.427 13.048zm81.885 0a22.934 22.934 0 01-6.951 16.663 22.729 22.729 0 01-16.663 6.948h-39.8a22.62 22.62 0 01-16.571-6.948 22.729 22.729 0 01-6.951-16.663V33.325a22.417 22.417 0 016.951-16.568 22.62 22.62 0 0116.567-6.951h39.8a22.729 22.729 0 0116.663 6.951 22.62 22.62 0 016.951 16.567zm-76.934 0V33.325a13.423 13.423 0 014-9.521 13.161 13.161 0 019.521-3.9h39.8a12.956 12.956 0 019.521 3.9 13 13 0 014 9.521v64.841a12.6 12.6 0 01-4 9.521 12.8 12.8 0 01-9.521 4h-39.8a13 13 0 01-9.521-4 13 13 0 01-4-9.521zm61.794 0V33.325a8.059 8.059 0 00-2.476-5.9 8.594 8.594 0 00-6-2.476h-39.8a8.059 8.059 0 00-5.9 2.476 7.914 7.914 0 00-2.571 5.9v64.841a7.826 7.826 0 002.571 6 8.059 8.059 0 005.9 2.476h39.8a8.594 8.594 0 006-2.476 8.169 8.169 0 002.477-6zm109.448-13.044q-14.568-4.094-14.568-19.233-.19-15.045 14.475-19.424l3.809-1.143a7.111 7.111 0 004.094-2.761 7.38 7.38 0 001.523-4.761v-5.046a7.524 7.524 0 00-2.285-5.522 7.524 7.524 0 00-5.522-2.285h-41.419a7.024 7.024 0 00-5.427 2.285 7.577 7.577 0 00-2.38 5.522V39.8h-5.046v-7.046a12.886 12.886 0 013.809-9.141 12.515 12.515 0 019.045-3.713h41.514a12.31 12.31 0 019.045 3.713 12.423 12.423 0 013.713 9.141V37.8a12.226 12.226 0 01-2.476 7.808 12.47 12.47 0 01-6.76 4.57l-3.9 1.143q-10.95 3.237-10.95 14.473.1 11.521 10.95 14.473l3.9 1.047a13.234 13.234 0 016.76 4.666 12.327 12.327 0 012.476 7.712v5.142a11.916 11.916 0 01-3.713 9.045 12.156 12.156 0 01-9.045 3.809h-41.515a12.357 12.357 0 01-9.045-3.809 12.357 12.357 0 01-3.809-9.045v-7.047h5.046v7.046a7.577 7.577 0 002.38 5.522 7.024 7.024 0 005.427 2.285h41.418a7.524 7.524 0 005.522-2.285 7.524 7.524 0 002.285-5.522v-5.142a8.167 8.167 0 00-1.523-4.761 9.556 9.556 0 00-4.094-2.761zm-72.839 6.665h5.046v7.046a26.868 26.868 0 008.188 19.709 26.868 26.868 0 0019.712 8.189h41.418a26.868 26.868 0 0019.709-8.188 26.868 26.868 0 008.188-19.709v-5.142a27.073 27.073 0 00-5.615-16.759 28.105 28.105 0 00-10.378-8.379l-8.665-2.761q6.094-1.9 10.474-3.7t8.569-7.4a26.811 26.811 0 005.618-16.8v-5.032a26.852 26.852 0 00-8.188-19.742 26.866 26.866 0 00-19.709-8.068h-41.421A26.9 26.9 0 00131.73 13.1a26.759 26.759 0 00-8.188 19.7v7.007h-5.046v-7.012a31.585 31.585 0 019.712-23.218A31.935 31.935 0 01151.44.006h41.418a31.7 31.7 0 0123.232 9.588 31.676 31.676 0 019.712 23.261v5.022a31.205 31.205 0 01-6.663 19.751 31.261 31.261 0 01-8.855 8.165 33.494 33.494 0 018.855 8.184 31.471 31.471 0 016.665 19.709v5.142a31.811 31.811 0 01-9.712 23.328 31.654 31.654 0 01-23.236 9.621h-41.417a31.858 31.858 0 01-23.232-9.617 31.811 31.811 0 01-9.712-23.328zm10.093 0h5.046v7.046a17.251 17.251 0 005.237 12.664 17.141 17.141 0 0012.57 5.236h41.418a16.939 16.939 0 0012.568-5.237 16.853 16.853 0 005.237-12.664V93.69a17.633 17.633 0 00-3.523-10.758 18.341 18.341 0 00-9.331-6.379l-3.9-1.143q-7.236-2-7.236-9.617 0-7.522 7.236-9.617l3.9-1.143a17.832 17.832 0 009.331-6.475 16.864 16.864 0 003.523-10.759v-5.046a17.05 17.05 0 00-5.237-12.664 16.939 16.939 0 00-12.568-5.237h-41.418a17.141 17.141 0 00-12.568 5.237 17.251 17.251 0 00-5.237 12.664v7.046h-5.046v-7.046a21.881 21.881 0 016.76-16.187 21.573 21.573 0 0116.091-6.76h41.418a22.084 22.084 0 0116.187 6.76 22.037 22.037 0 016.665 16.187v5.046a22.213 22.213 0 01-4.475 13.806 23.05 23.05 0 01-11.9 8.188l-4 1.143a4.687 4.687 0 00-3.618 4.856 4.6 4.6 0 003.618 4.856l4 1.143a23.285 23.285 0 0111.9 8.188 22.329 22.329 0 014.475 13.711v5.142a22.037 22.037 0 01-6.67 16.187 22.5 22.5 0 01-16.183 6.758h-41.417a21.975 21.975 0 01-16.091-6.76 21.682 21.682 0 01-6.76-16.187z" fill="#29a3fb"/></svg>